HIERARCHY
ROOT root
{
	OFFSET	0	13.1	24.9
	CHANNELS 6  Xposition Yposition Zposition Xrotation Yrotation Zrotation
	JOINT spine_1
	{
		OFFSET	0	9.99999	0
		CHANNELS 3  Xrotation Yrotation Zrotation
		JOINT spine_2
		{
			OFFSET	0	112	-10
			CHANNELS 3  Xrotation Yrotation Zrotation
			JOINT spine_3
			{
				OFFSET	0	206.5	19.3
				CHANNELS 3  Xrotation Yrotation Zrotation
				JOINT spine_4
				{
					OFFSET	0	110.4	14.6
					CHANNELS 3  Xrotation Yrotation Zrotation
					JOINT neck_1
					{
						OFFSET	0	71.8	-50.3
						CHANNELS 3  Xrotation Yrotation Zrotation
						JOINT neck_2
						{
							OFFSET	0	86.2	-25.8
							CHANNELS 3  Xrotation Yrotation Zrotation
							JOINT head_ee
							{
								OFFSET	0	179.8	-8.7
								CHANNELS 3  Xrotation Yrotation Zrotation
								End Site
								{
									OFFSET	1	0	0
								}
							}
						}
					}
					JOINT left_clavicle
					{
						OFFSET	-43.2	22.4	-70.8
						CHANNELS 3  Xrotation Yrotation Zrotation
						JOINT left_shoulder
						{
							OFFSET	-93.9	-5.79999	48.7
							CHANNELS 3  Xrotation Yrotation Zrotation
							JOINT left_elbow
							{
								OFFSET	-291.4	-30.8	15.2
								CHANNELS 3  Xrotation Yrotation Zrotation
								JOINT left_lowarm_twist
								{
									OFFSET	-110.7	-3.89999	13.6
									CHANNELS 3  Xrotation Yrotation Zrotation
									JOINT left_hand
									{
										OFFSET	-110.7	-3.89999	13.6
										CHANNELS 3  Xrotation Yrotation Zrotation
										JOINT left_ee
										{
											OFFSET	-80.8	-5.10001	12.1
											CHANNELS 3  Xrotation Yrotation Zrotation
											End Site
											{
												OFFSET	1	0	0
											}
										}
									}
								}
							}
						}
					}
					JOINT right_clavicle
					{
						OFFSET	43.2	22.4	-70.8
						CHANNELS 3  Xrotation Yrotation Zrotation
						JOINT right_shoulder
						{
							OFFSET	93.9	-5.79999	48.7
							CHANNELS 3  Xrotation Yrotation Zrotation
							JOINT right_elbow
							{
								OFFSET	291.4	-30.8	15.2
								CHANNELS 3  Xrotation Yrotation Zrotation
								JOINT right_lowarm_twist
								{
									OFFSET	110.7	-3.89999	13.6
									CHANNELS 3  Xrotation Yrotation Zrotation
									JOINT right_hand
									{
										OFFSET	110.7	-3.89999	13.6
										CHANNELS 3  Xrotation Yrotation Zrotation
										JOINT right_ee
										{
											OFFSET	80.8	-5.10001	12.1
											CHANNELS 3  Xrotation Yrotation Zrotation
											End Site
											{
												OFFSET	1	0	0
											}
										}
									}
								}
							}
						}
					}
				}
			}
		}
	}
	JOINT left_hip
	{
		OFFSET	-82.8	-127.5	0.300001
		CHANNELS 3  Xrotation Yrotation Zrotation
		JOINT left_knee
		{
			OFFSET	-28.2	-396.7	2.2
			CHANNELS 3  Xrotation Yrotation Zrotation
			JOINT left_ankle
			{
				OFFSET	-11.7	-411.3	35.4
				CHANNELS 3  Xrotation Yrotation Zrotation
				JOINT left_toes
				{
					OFFSET	0	-60	-88.6
					CHANNELS 3  Xrotation Yrotation Zrotation
					JOINT left_foot_ee
					{
						OFFSET	-22.5	-16.5	-42.2
						CHANNELS 3  Xrotation Yrotation Zrotation
						End Site
						{
							OFFSET	1	0	0
						}
					}
				}
			}
		}
	}
	JOINT right_hip
	{
		OFFSET	82.8	-127.5	0.300001
		CHANNELS 3  Xrotation Yrotation Zrotation
		JOINT right_knee
		{
			OFFSET	28.2	-396.7	2.2
			CHANNELS 3  Xrotation Yrotation Zrotation
			JOINT right_ankle
			{
				OFFSET	11.7	-411.3	35.4
				CHANNELS 3  Xrotation Yrotation Zrotation
				JOINT right_toes
				{
					OFFSET	0	-60	-88.6
					CHANNELS 3  Xrotation Yrotation Zrotation
					JOINT right_foot_ee
					{
						OFFSET	22.5	-16.5	-42.2
						CHANNELS 3  Xrotation Yrotation Zrotation
						End Site
						{
							OFFSET	1	0	0
						}
					}
				}
			}
		}
	}
}
MOTION
Frames: 12
Frame Time: 0.02
2865.72004191 694.338 -1620.91943565 2.13751722569 69.6571069428 0.995136529533 0.797987 -0.0174548 1.04896 0.798595 -0.0841638 1.04572 0.797171 -0.288098 1.00878 0.795773 -0.125174 1.04161 -6.55154 -3.23599 3.51133 -6.50441 -8.55521 2.89658 -0.0 0.0 -0.0 0.371568 6.4091 1.43128 14.5014 -24.0723 67.0662 0.747645 -20.3227 0.134003 -10.6522 -0.494715 1.26692 0.801168 11.572 9.90843 -0.0 0.0 -0.0 10.4652 25.0156 -20.0101 -14.0216 1.13908 -69.2973 1.07476 28.0303 -0.268277 72.8553 3.04191 8.15686 -0.942317 -28.4755 -6.0063 0.0 0.0 0.0 0.0684806 12.1573 -0.930412 5.22422 -0.25011 -0.762203 23.4216 -5.02885 -3.21374 -10.6311 0.0 0.0 -0.0 0.0 -0.0 15.6613 10.4134 -0.00688607 -49.8613 1.21011 -7.31886 24.5726 -17.7595 3.34286 -3.53899 0.0 0.0 0.0 0.0 0.0 
2860.11009893 692.538 -1613.67135379 1.74236064896 68.7716297683 1.15018327507 0.717721 0.058486 1.0707 0.718359 -0.00976013 1.07225 0.718341 -0.221794 1.04911 0.716808 -0.0533331 1.07097 -7.48757 -4.10654 4.11403 -7.43431 -10.5837 3.24032 -0.0 0.0 -0.0 0.503953 5.00872 1.51872 15.2509 -24.8211 65.9482 0.839863 -22.5893 0.167742 -9.887 -0.451384 1.17914 0.914783 9.88559 10.0116 -0.0 0.0 -0.0 10.3534 25.5876 -19.6994 -14.9901 0.499087 -69.4998 1.02442 26.9057 -0.245056 73.5161 3.11314 8.20286 -0.963894 -28.2754 -5.80688 0.0 0.0 0.0 -1.73074 13.5549 0.162307 7.52924 -0.382404 -1.09078 22.9272 -5.62017 -3.16121 -11.6109 0.0 0.0 -0.0 0.0 -0.0 18.0917 7.83781 0.595045 -48.2629 1.07427 -7.11365 26.2812 -10.6912 3.48693 -4.52284 0.0 0.0 0.0 0.0 0.0 
2846.85488084 688.816 -1601.84646666 2.61598892404 70.5199165716 -0.305494985718 0.568074 0.0119572 1.14832 0.568806 -0.0611327 1.14675 0.567772 -0.289831 1.11121 0.566066 -0.11071 1.14303 -8.23482 -4.29671 3.48259 -8.20669 -10.4748 2.49695 -0.0 0.0 -0.0 0.66388 3.96047 1.70121 16.3817 -25.4194 65.0554 0.950215 -25.2064 0.212458 -9.84368 -0.448966 1.17415 0.871422 7.88634 8.96531 -0.0 0.0 -0.0 10.1395 24.8857 -19.2919 -17.5738 -0.0448385 -70.0493 0.955381 25.3262 -0.214663 73.7952 3.14339 8.22205 -1.09493 -28.2241 -5.07317 0.0 0.0 0.0 -3.28479 14.532 1.47805 7.4769 -0.379253 -1.08338 22.7836 -5.40779 -3.14126 -11.7543 0.0 0.0 -0.0 0.0 -0.0 20.2127 7.99099 0.427279 -43.8658 0.73084 -6.53078 27.0248 -8.26039 3.56357 -4.4991 0.0 0.0 0.0 0.0 0.0 
2833.1558618 683.995 -1590.06955152 2.69537102524 70.9442666033 -0.599042804031 0.734012 -0.00802738 1.23489 0.734856 -0.0865842 1.23188 0.73317 -0.328409 1.19045 0.731218 -0.136293 1.22737 -7.44937 -4.0611 2.88808 -7.42295 -9.62411 2.02869 -0.0 0.0 -0.0 0.978598 4.45381 2.33301 17.2725 -25.7284 64.673 1.06105 -27.7263 0.261866 -10.5881 -0.491036 1.25958 0.289126 -0.587191 1.68616 -0.0 0.0 -0.0 9.5399 22.3363 -18.1887 -18.1321 -0.273816 -70.2327 0.94113 24.9949 -0.208604 74.5426 3.22485 8.2727 -0.600285 -25.1672 -6.56984 0.0 0.0 0.0 -3.86667 16.2026 2.25388 6.16907 -0.302734 -0.89752 29.658 -6.39102 -3.94533 -12.5554 0.0 0.0 -0.0 0.0 -0.0 19.2866 8.7416 0.276573 -39.1077 0.41098 -5.87298 29.0272 -3.24222 3.78833 -3.79701 0.0 0.0 0.0 0.0 0.0 
2794.33760387 683.518 -1570.29228745 2.68089837433 74.9146392443 -1.5651195922 1.01265 0.0841827 1.36697 1.01368 -0.00296329 1.36955 1.01381 -0.267069 1.34327 1.0113 -0.0515934 1.36859 -7.54015 -4.4688 3.40913 -7.50448 -10.7538 2.45461 -0.0 0.0 -0.0 1.26938 5.61417 2.97625 18.6232 -26.5115 65.0451 1.69522 -40.0189 0.617366 -16.3843 -0.856018 1.905 -0.901162 -5.69206 -8.52136 -0.0 0.0 -0.0 9.13009 18.2708 -17.5848 -24.015 -3.07031 -70.8515 0.758048 20.5818 -0.137639 78.4181 3.6574 8.5181 -0.735312 -23.7943 -5.24748 0.0 0.0 0.0 -7.92127 16.9299 4.12364 6.72764 -0.334894 -0.97711 30.7236 -8.617 -4.09779 -14.7914 0.0 0.0 -0.0 0.0 -0.0 20.9264 10.4888 -0.023816 -15.6265 -0.322081 -2.36901 20.5188 2.79119 2.83661 -4.81769 0.0 0.0 0.0 0.0 0.0 
2793.77040526 683.518 -1572.51132709 2.62454364401 74.5830039972 -1.50670795205 1.01265 0.0841827 1.36697 1.01368 -0.00296329 1.36955 1.01381 -0.267069 1.34327 1.0113 -0.0515934 1.36859 -7.54015 -4.4688 3.40913 -7.50448 -10.7538 2.45461 -0.0 0.0 -0.0 1.26938 5.61417 2.97625 18.6232 -26.5115 65.0451 1.69522 -40.0189 0.617366 -16.3843 -0.856018 1.905 -0.901162 -5.69206 -8.52136 -0.0 0.0 -0.0 9.13009 18.2708 -17.5848 -24.015 -3.07031 -70.8515 0.758048 20.5818 -0.137639 78.4181 3.6574 8.5181 -0.735312 -23.7943 -5.24748 0.0 0.0 0.0 -7.92127 16.9299 4.12364 6.72764 -0.334894 -0.97711 30.7236 -8.617 -4.09779 -14.7914 0.0 0.0 -0.0 0.0 -0.0 20.9264 10.4888 -0.023816 -15.6265 -0.322081 -2.36901 20.5188 2.79119 2.83661 -4.81769 0.0 0.0 0.0 0.0 0.0 
2793.16505353 683.518 -1574.94094877 2.56567977723 74.2204357971 -1.44559357691 1.01265 0.0841827 1.36697 1.01368 -0.00296329 1.36955 1.01381 -0.267069 1.34327 1.0113 -0.0515934 1.36859 -7.54015 -4.4688 3.40913 -7.50448 -10.7538 2.45461 -0.0 0.0 -0.0 1.26938 5.61417 2.97625 18.6232 -26.5115 65.0451 1.69522 -40.0189 0.617366 -16.3843 -0.856018 1.905 -0.901162 -5.69206 -8.52136 -0.0 0.0 -0.0 9.13009 18.2708 -17.5848 -24.015 -3.07031 -70.8515 0.758048 20.5818 -0.137639 78.4181 3.6574 8.5181 -0.735312 -23.7943 -5.24748 0.0 0.0 0.0 -7.92127 16.9299 4.12364 6.72764 -0.334894 -0.97711 30.7236 -8.617 -4.09779 -14.7914 0.0 0.0 -0.0 0.0 -0.0 20.9264 10.4888 -0.023816 -15.6265 -0.322081 -2.36901 20.5188 2.79119 2.83661 -4.81769 0.0 0.0 0.0 0.0 0.0 
2779.03878171 682.272 -1573.74918993 0.820843083245 74.1927430601 -0.269532630374 1.09321 0.107257 1.38561 1.09428 0.018878 1.38962 1.09493 -0.247568 1.36753 1.09232 -0.0285072 1.38946 -7.40284 -4.81605 2.12664 -7.38863 -10.4846 1.11461 -0.0 0.0 -0.0 1.35467 6.0452 3.17026 18.7418 -26.9159 65.0816 1.91449 -43.478 0.763439 -17.5925 -0.940233 2.03474 -1.13487 -7.50727 -10.9126 -0.0 0.0 -0.0 8.83983 17.9922 -16.9613 -25.4824 -3.82638 -71.4962 0.711742 19.4214 -0.121799 79.5109 3.78227 8.58196 -0.800991 -23.2124 -4.63067 0.0 0.0 0.0 -8.89342 17.6896 4.8139 7.68726 -0.391958 -1.11311 31.528 -7.60825 -4.16487 -14.8208 0.0 0.0 -0.0 0.0 -0.0 21.0585 10.4209 -0.681739 -9.80136 -0.277809 -1.47671 17.4849 2.34892 2.44899 -3.51381 0.0 0.0 0.0 0.0 0.0 
2763.61566865 685.512 -1574.03735898 -0.0292657094375 73.9800891938 0.686627182012 1.09182 0.146116 1.28252 1.09273 0.0642167 1.28922 1.09436 -0.183837 1.27766 1.09208 0.0202351 1.29066 -7.1899 -5.02122 2.42988 -7.16809 -11.0814 1.39538 -0.0 0.0 -0.0 1.54158 6.38574 3.53787 18.9592 -26.9719 65.2466 2.08709 -45.9488 0.884897 -18.8047 -1.02748 2.16313 -1.30828 -8.67996 -12.6193 -0.0 0.0 -0.0 8.65399 16.6854 -16.6329 -26.8938 -4.41149 -71.4237 0.659926 18.1031 -0.105132 80.4315 3.88839 8.63391 -0.872643 -23.058 -4.15326 0.0 0.0 0.0 -10.2306 17.7741 5.4632 7.15134 -0.359807 -1.03727 30.4619 -8.34937 -4.06481 -15.2871 0.0 0.0 -0.0 0.0 -0.0 22.6373 10.4424 -1.63326 -5.59535 -0.189602 -0.83745 15.177 2.68982 2.14977 -3.5084 0.0 0.0 0.0 0.0 0.0 
2748.43840022 689.005 -1579.06854562 1.73857714347 73.1549205947 -1.56342020546 0.94285 0.235909 1.56045 0.944195 0.136148 1.5723 0.948294 -0.171437 1.56884 0.944868 0.0784524 1.57623 -7.85307 -5.46167 3.50451 -7.82189 -12.668 2.3036 -0.0 0.0 -0.0 1.90731 7.09789 4.25288 18.9569 -26.3978 64.8235 2.22126 -47.7289 0.982779 -19.7841 -1.09994 2.2655 -1.53711 -7.1056 -13.514 -0.0 0.0 -0.0 8.5385 13.7152 -16.5344 -28.179 -1.5921 -70.4293 0.66191 18.1539 -0.105749 79.311 3.75934 8.57045 -1.39176 -28.9207 -3.76871 0.0 0.0 0.0 -11.2064 16.0084 5.54012 6.31365 -0.310984 -0.918151 28.4337 -9.63003 -3.86604 -15.4565 0.0 0.0 -0.0 0.0 -0.0 23.0789 10.8469 -2.19145 -0.183242 -0.00750188 -0.0271196 10.8746 3.87625 1.57367 -5.32878 0.0 0.0 0.0 0.0 0.0 
2747.79431073 689.005 -1582.18428164 1.69789144752 72.7388889611 -1.52086371393 0.94285 0.235909 1.56045 0.944195 0.136148 1.5723 0.948294 -0.171437 1.56884 0.944868 0.0784524 1.57623 -7.85307 -5.46167 3.50451 -7.82189 -12.668 2.3036 -0.0 0.0 -0.0 1.90731 7.09789 4.25288 18.9569 -26.3978 64.8235 2.22126 -47.7289 0.982779 -19.7841 -1.09994 2.2655 -1.53711 -7.1056 -13.514 -0.0 0.0 -0.0 8.5385 13.7152 -16.5344 -28.179 -1.5921 -70.4293 0.66191 18.1539 -0.105749 79.311 3.75934 8.57045 -1.39176 -28.9207 -3.76871 0.0 0.0 0.0 -11.2064 16.0084 5.54012 6.31365 -0.310984 -0.918151 28.4337 -9.63003 -3.86604 -15.4565 0.0 0.0 -0.0 0.0 -0.0 23.0789 10.8469 -2.19145 -0.183242 -0.00750188 -0.0271196 10.8746 3.87625 1.57367 -5.32878 0.0 0.0 0.0 0.0 0.0 
2740.311042 684.7 -1585.35615935 0.618266963812 72.0977477408 -0.607228144483 1.00033 0.313248 1.60618 1.00174 0.210422 1.62286 1.0081 -0.106651 1.63296 1.00442 0.152548 1.62931 -7.84427 -6.01704 3.59892 -7.81229 -13.77 2.27815 -0.0 0.0 -0.0 1.81796 7.31703 4.11031 19.9389 -27.0722 64.6679 2.39504 -49.8663 1.11355 -21.393 -1.22277 2.43097 -1.67131 -7.39436 -14.5753 -0.0 0.0 -0.0 8.7997 14.1959 -17.0828 -28.4204 -2.35535 -70.6007 0.580961 16.0555 -0.0819365 81.8754 4.05646 8.71193 -2.27872 -29.074 0.909619 0.0 0.0 0.0 -11.6395 17.3626 5.97308 7.32306 -0.370032 -1.06161 29.0772 -8.99537 -3.92573 -16.3422 0.0 0.0 -0.0 0.0 -0.0 24.6142 10.4182 -2.69845 4.29918 0.200763 0.628917 5.08177 2.44935 0.746535 -5.32672 0.0 0.0 0.0 0.0 0.0 
